<?xml version="1.0" encoding="UTF-8" standalone="no"?>
<!-- Created with Inkscape (http://www.inkscape.org/) -->

<svg
   xmlns:dc="http://purl.org/dc/elements/1.1/"
   xmlns:cc="http://creativecommons.org/ns#"
   xmlns:rdf="http://www.w3.org/1999/02/22-rdf-syntax-ns#"
   xmlns:svg="http://www.w3.org/2000/svg"
   xmlns="http://www.w3.org/2000/svg"
   xmlns:sodipodi="http://sodipodi.sourceforge.net/DTD/sodipodi-0.dtd"
   xmlns:inkscape="http://www.inkscape.org/namespaces/inkscape"
   width="384"
   height="108"
   viewBox="0 0 101.59999 28.574999"
   version="1.1"
   id="svg8"
   sodipodi:docname="library_logo.svg"
   inkscape:export-filename="C:\Users\Hum\Desktop\library-logo.png"
   inkscape:export-xdpi="96"
   inkscape:export-ydpi="96"
   inkscape:version="0.92.1 r15371">
  <defs
     id="defs2">
    <clipPath
       id="clipPath4501"
       clipPathUnits="userSpaceOnUse">
      <path
         inkscape:connector-curvature="0"
         id="path4499"
         d="M 0,595.276 H 841.89 V 0 H 0 Z" />
    </clipPath>
  </defs>
  <sodipodi:namedview
     id="base"
     pagecolor="#ffffff"
     bordercolor="#666666"
     borderopacity="1.0"
     inkscape:pageopacity="0.0"
     inkscape:pageshadow="2"
     inkscape:zoom="1.979899"
     inkscape:cx="205.54935"
     inkscape:cy="-82.935735"
     inkscape:document-units="mm"
     inkscape:current-layer="layer2"
     showgrid="false"
     units="px"
     inkscape:window-width="2560"
     inkscape:window-height="1377"
     inkscape:window-x="-8"
     inkscape:window-y="-8"
     inkscape:window-maximized="1"
     scale-x="0.5"
     fit-margin-top="0"
     fit-margin-left="0"
     fit-margin-right="0"
     fit-margin-bottom="0"
     showguides="true"
     inkscape:guide-bbox="true"
     inkscape:pagecheckerboard="true">
    <sodipodi:guide
       position="16.915659,22.810287"
       orientation="0,1"
       id="guide4992"
       inkscape:locked="false" />
    <sodipodi:guide
       position="14.204245,12.531824"
       orientation="0,1"
       id="guide4994"
       inkscape:locked="false" />
  </sodipodi:namedview>
  <metadata
     id="metadata5">
    <rdf:RDF>
      <cc:Work
         rdf:about="">
        <dc:format>image/svg+xml</dc:format>
        <dc:type
           rdf:resource="http://purl.org/dc/dcmitype/StillImage" />
        <dc:title></dc:title>
      </cc:Work>
    </rdf:RDF>
  </metadata>
  <g
     inkscape:label="Layer 1"
     inkscape:groupmode="layer"
     id="layer1"
     transform="translate(-340.26157,-290.84189)">
    <g
       id="g4882"
       transform="translate(10.099371,-10.013465)">
      <g
         id="g4493"
         inkscape:label="FOH_H"
         transform="matrix(0.35277777,0,0,-0.35277777,220.93624,440.88069)">
        <g
           id="g4495">
          <g
             id="g4497"
             clip-path="url(#clipPath4501)">
            <g
               id="g4503"
               transform="translate(371.9121,352.3703)">
              <path
                 d="m 0,0 c -0.551,0.264 -0.592,0.413 -0.592,1.433 0,1.886 0.156,3.394 0.197,3.999 0.04,0.416 0.119,0.602 0.317,0.602 0.238,0 0.273,-0.115 0.273,-0.419 0,-0.335 0,-0.865 0.122,-1.39 0.595,-2.792 3.207,-3.851 5.864,-3.851 3.798,0 5.659,2.605 5.659,5.02 0,2.602 -1.148,4.112 -4.553,6.788 l -1.785,1.396 c -4.196,3.279 -5.144,5.617 -5.144,8.18 0,4.037 3.166,6.789 8.197,6.789 1.543,0 2.691,-0.149 3.681,-0.374 0.751,-0.152 1.072,-0.191 1.389,-0.191 0.315,0 0.394,-0.075 0.394,-0.26 0,-0.192 -0.161,-1.437 -0.161,-4.001 0,-0.603 -0.079,-0.866 -0.274,-0.866 -0.238,0 -0.276,0.189 -0.319,0.489 -0.038,0.451 -0.278,1.473 -0.514,1.888 -0.235,0.412 -1.305,1.997 -4.951,1.997 -2.73,0 -4.867,-1.621 -4.867,-4.374 0,-2.151 1.107,-3.433 4.829,-6.332 L 8.869,15.686 C 13.546,12.182 14.653,9.843 14.653,6.827 14.653,5.28 14.019,2.414 11.284,0.566 9.583,-0.564 7.444,-1.018 5.31,-1.018 3.443,-1.018 1.625,-0.754 0,0"
                 style="fill:#1a2c6b;fill-opacity:1;fill-rule:nonzero;stroke:none"
                 id="path4505"
                 inkscape:connector-curvature="0" />
            </g>
            <g
               id="g4507"
               transform="translate(371.9121,352.3703)">
              <path
                 d="m 0,0 c -0.551,0.264 -0.592,0.413 -0.592,1.433 0,1.886 0.156,3.394 0.197,3.999 0.04,0.416 0.119,0.602 0.317,0.602 0.238,0 0.273,-0.115 0.273,-0.419 0,-0.335 0,-0.865 0.122,-1.39 0.595,-2.792 3.207,-3.851 5.864,-3.851 3.798,0 5.659,2.605 5.659,5.02 0,2.602 -1.148,4.112 -4.553,6.788 l -1.785,1.396 c -4.196,3.279 -5.144,5.617 -5.144,8.18 0,4.037 3.166,6.789 8.197,6.789 1.543,0 2.691,-0.149 3.681,-0.374 0.751,-0.152 1.072,-0.191 1.389,-0.191 0.315,0 0.394,-0.075 0.394,-0.26 0,-0.192 -0.161,-1.437 -0.161,-4.001 0,-0.603 -0.079,-0.866 -0.274,-0.866 -0.238,0 -0.276,0.189 -0.319,0.489 -0.038,0.451 -0.278,1.473 -0.514,1.888 -0.235,0.412 -1.305,1.997 -4.951,1.997 -2.73,0 -4.867,-1.621 -4.867,-4.374 0,-2.151 1.107,-3.433 4.829,-6.332 L 8.869,15.686 C 13.546,12.182 14.653,9.843 14.653,6.827 14.653,5.28 14.019,2.414 11.284,0.566 9.583,-0.564 7.444,-1.018 5.31,-1.018 3.443,-1.018 1.625,-0.754 0,0 Z"
                 style="fill:none;stroke:#1a2c6b;stroke-width:0.31099999;stroke-linecap:butt;stroke-linejoin:miter;stroke-miterlimit:4;stroke-dasharray:none;stroke-opacity:1"
                 id="path4509"
                 inkscape:connector-curvature="0" />
            </g>
            <g
               id="g4511"
               transform="translate(423.9678,356.342)">
              <path
                 d="M 0,0 C 0.158,-1.358 0.434,-3.47 2.136,-3.998 3.288,-4.34 4.314,-4.34 4.713,-4.34 c 0.198,0 0.312,-0.036 0.312,-0.184 0,-0.232 -0.355,-0.343 -0.83,-0.343 -0.869,0 -5.149,0.111 -6.614,0.23 -0.907,0.071 -1.105,0.183 -1.105,0.375 0,0.15 0.079,0.23 0.277,0.264 0.203,0.037 0.236,0.678 0.157,1.357 L -4.994,16.818 H -5.108 L -14.81,-2.789 c -0.833,-1.665 -0.952,-2.001 -1.31,-2.001 -0.275,0 -0.475,0.377 -1.227,1.736 -1.025,1.847 -4.432,8.374 -4.629,8.745 -0.357,0.681 -4.796,9.734 -5.23,10.751 h -0.159 l -1.582,-17.499 c -0.038,-0.6 -0.038,-1.284 -0.038,-1.924 0,-0.568 0.433,-1.051 1.03,-1.168 0.671,-0.151 1.264,-0.191 1.501,-0.191 0.16,0 0.32,-0.073 0.32,-0.184 0,-0.266 -0.241,-0.343 -0.717,-0.343 -1.465,0 -3.364,0.111 -3.683,0.111 -0.354,0 -2.255,-0.111 -3.321,-0.111 -0.397,0 -0.678,0.077 -0.678,0.343 0,0.111 0.203,0.184 0.401,0.184 0.315,0 0.591,0 1.183,0.114 1.31,0.228 1.429,1.697 1.587,3.131 l 2.851,24.59 c 0.079,0.414 0.195,0.678 0.435,0.678 0.238,0 0.398,-0.15 0.596,-0.565 L -15.366,-0.114 -3.725,23.57 c 0.158,0.339 0.318,0.603 0.597,0.603 0.277,0 0.396,-0.298 0.475,-1.017 z"
                 style="fill:#1a2c6b;fill-opacity:1;fill-rule:nonzero;stroke:none"
                 id="path4513"
                 inkscape:connector-curvature="0" />
            </g>
            <g
               id="g4515"
               transform="translate(423.9678,356.342)">
              <path
                 d="M 0,0 C 0.158,-1.358 0.434,-3.47 2.136,-3.998 3.288,-4.34 4.314,-4.34 4.713,-4.34 c 0.198,0 0.312,-0.036 0.312,-0.184 0,-0.232 -0.355,-0.343 -0.83,-0.343 -0.869,0 -5.149,0.111 -6.614,0.23 -0.907,0.071 -1.105,0.183 -1.105,0.375 0,0.15 0.079,0.23 0.277,0.264 0.203,0.037 0.236,0.678 0.157,1.357 L -4.994,16.818 H -5.108 L -14.81,-2.789 c -0.833,-1.665 -0.952,-2.001 -1.31,-2.001 -0.275,0 -0.475,0.377 -1.227,1.736 -1.025,1.847 -4.432,8.374 -4.629,8.745 -0.357,0.681 -4.796,9.734 -5.23,10.751 h -0.159 l -1.582,-17.499 c -0.038,-0.6 -0.038,-1.284 -0.038,-1.924 0,-0.568 0.433,-1.051 1.03,-1.168 0.671,-0.151 1.264,-0.191 1.501,-0.191 0.16,0 0.32,-0.073 0.32,-0.184 0,-0.266 -0.241,-0.343 -0.717,-0.343 -1.465,0 -3.364,0.111 -3.683,0.111 -0.354,0 -2.255,-0.111 -3.321,-0.111 -0.397,0 -0.678,0.077 -0.678,0.343 0,0.111 0.203,0.184 0.401,0.184 0.315,0 0.591,0 1.183,0.114 1.31,0.228 1.429,1.697 1.587,3.131 l 2.851,24.59 c 0.079,0.414 0.195,0.678 0.435,0.678 0.238,0 0.398,-0.15 0.596,-0.565 L -15.366,-0.114 -3.725,23.57 c 0.158,0.339 0.318,0.603 0.597,0.603 0.277,0 0.396,-0.298 0.475,-1.017 z"
                 style="fill:none;stroke:#1a2c6b;stroke-width:0.31099999;stroke-linecap:butt;stroke-linejoin:miter;stroke-miterlimit:4;stroke-dasharray:none;stroke-opacity:1"
                 id="path4517"
                 inkscape:connector-curvature="0" />
            </g>
            <g
               id="g4519"
               transform="translate(431.001,369.4533)">
              <path
                 d="m 0,0 c 0,5.885 0,6.942 -0.081,8.148 -0.078,1.283 -0.394,1.884 -1.698,2.148 -0.321,0.078 -0.994,0.113 -1.349,0.113 -0.162,0 -0.319,0.073 -0.319,0.23 0,0.224 0.2,0.299 0.634,0.299 1.783,0 4.2,-0.114 4.555,-0.114 0.356,0 2.73,0.114 3.92,0.114 0.435,0 0.633,-0.075 0.633,-0.299 0,-0.157 -0.157,-0.23 -0.316,-0.23 C 5.7,10.409 5.462,10.374 4.987,10.296 3.921,10.146 3.603,9.467 3.524,8.148 3.446,6.942 3.446,5.885 3.446,0 v -5.278 c 0,-5.433 1.267,-7.77 2.968,-9.317 1.942,-1.733 3.725,-2.075 5.979,-2.075 2.417,0 4.794,1.095 6.216,2.717 1.824,2.15 2.298,5.357 2.298,9.238 V 0 c 0,5.885 0,6.942 -0.079,8.148 -0.081,1.283 -0.395,1.884 -1.703,2.148 -0.316,0.078 -0.988,0.113 -1.344,0.113 -0.16,0 -0.317,0.073 -0.317,0.23 0,0.224 0.198,0.299 0.633,0.299 1.784,0 3.958,-0.114 4.196,-0.114 0.277,0 2.143,0.114 3.326,0.114 0.435,0 0.635,-0.075 0.635,-0.299 0,-0.157 -0.159,-0.23 -0.315,-0.23 -0.279,0 -0.515,0 -0.993,-0.113 C 23.878,10.109 23.562,9.467 23.481,8.148 23.405,6.942 23.405,5.885 23.405,0 v -4.034 c 0,-4.075 -0.479,-8.599 -3.643,-11.277 -2.854,-2.414 -5.823,-2.79 -8.163,-2.79 -1.343,0 -5.342,0.15 -8.153,2.679 C 1.504,-13.653 0,-11.015 0,-5.507 Z"
                 style="fill:#1a2c6b;fill-opacity:1;fill-rule:nonzero;stroke:none"
                 id="path4521"
                 inkscape:connector-curvature="0" />
            </g>
            <g
               id="g4523"
               transform="translate(431.001,369.4533)">
              <path
                 d="m 0,0 c 0,5.885 0,6.942 -0.081,8.148 -0.078,1.283 -0.394,1.884 -1.698,2.148 -0.321,0.078 -0.994,0.113 -1.349,0.113 -0.162,0 -0.319,0.073 -0.319,0.23 0,0.224 0.2,0.299 0.634,0.299 1.783,0 4.2,-0.114 4.555,-0.114 0.356,0 2.73,0.114 3.92,0.114 0.435,0 0.633,-0.075 0.633,-0.299 0,-0.157 -0.157,-0.23 -0.316,-0.23 C 5.7,10.409 5.462,10.374 4.987,10.296 3.921,10.146 3.603,9.467 3.524,8.148 3.446,6.942 3.446,5.885 3.446,0 v -5.278 c 0,-5.433 1.267,-7.77 2.968,-9.317 1.942,-1.733 3.725,-2.075 5.979,-2.075 2.417,0 4.794,1.095 6.216,2.717 1.824,2.15 2.298,5.357 2.298,9.238 V 0 c 0,5.885 0,6.942 -0.079,8.148 -0.081,1.283 -0.395,1.884 -1.703,2.148 -0.316,0.078 -0.988,0.113 -1.344,0.113 -0.16,0 -0.317,0.073 -0.317,0.23 0,0.224 0.198,0.299 0.633,0.299 1.784,0 3.958,-0.114 4.196,-0.114 0.277,0 2.143,0.114 3.326,0.114 0.435,0 0.635,-0.075 0.635,-0.299 0,-0.157 -0.159,-0.23 -0.315,-0.23 -0.279,0 -0.515,0 -0.993,-0.113 C 23.878,10.109 23.562,9.467 23.481,8.148 23.405,6.942 23.405,5.885 23.405,0 v -4.034 c 0,-4.075 -0.479,-8.599 -3.643,-11.277 -2.854,-2.414 -5.823,-2.79 -8.163,-2.79 -1.343,0 -5.342,0.15 -8.153,2.679 C 1.504,-13.653 0,-11.015 0,-5.507 Z"
                 style="fill:none;stroke:#1a2c6b;stroke-width:0.31099999;stroke-linecap:butt;stroke-linejoin:miter;stroke-miterlimit:4;stroke-dasharray:none;stroke-opacity:1"
                 id="path4525"
                 inkscape:connector-curvature="0" />
            </g>
            <g
               id="g4527"
               transform="translate(349.8809,351.4455)">
              <path
                 d="M 0,0 -7.927,7.25 V 7.259 L -7.932,7.257 -7.935,7.259 V 7.25 L -15.866,0 -7.939,2.558 h 0.014 z"
                 style="fill:#1a2c6b;fill-opacity:1;fill-rule:nonzero;stroke:none"
                 id="path4529"
                 inkscape:connector-curvature="0" />
            </g>
            <g
               id="g4531"
               transform="translate(341.9541,358.715)">
              <path
                 d="m 0,0 2.612,7.173 5.83,0.703 z"
                 style="fill:#1a2c6b;fill-opacity:1;fill-rule:nonzero;stroke:none"
                 id="path4533"
                 inkscape:connector-curvature="0" />
            </g>
            <g
               id="g4535"
               transform="translate(356.2949,364.2502)">
              <path
                 d="m 0,0 -5.897,2.341 -0.167,9.645 z"
                 style="fill:#1a2c6b;fill-opacity:1;fill-rule:nonzero;stroke:none"
                 id="path4537"
                 inkscape:connector-curvature="0" />
            </g>
            <g
               id="g4539"
               transform="translate(351.6738,380.5773)">
              <path
                 d="m 0,0 5.893,0.004 -7.33,-4.353 z"
                 style="fill:#1a2c6b;fill-opacity:1;fill-rule:nonzero;stroke:none"
                 id="path4541"
                 inkscape:connector-curvature="0" />
            </g>
            <g
               id="g4543"
               transform="translate(341.9463,358.715)">
              <path
                 d="M 0,0 -2.612,7.173 -8.445,7.876 Z"
                 style="fill:#917641;fill-opacity:1;fill-rule:nonzero;stroke:none"
                 id="path4545"
                 inkscape:connector-curvature="0" />
            </g>
            <g
               id="g4547"
               transform="translate(327.6006,364.2502)">
              <path
                 d="m 0,0 5.9,2.341 0.165,9.645 z"
                 style="fill:#917641;fill-opacity:1;fill-rule:nonzero;stroke:none"
                 id="path4549"
                 inkscape:connector-curvature="0" />
            </g>
            <g
               id="g4551"
               transform="translate(332.2217,380.5773)">
              <path
                 d="M 0,0 -5.888,0.004 1.444,-4.349 Z"
                 style="fill:#917641;fill-opacity:1;fill-rule:nonzero;stroke:none"
                 id="path4553"
                 inkscape:connector-curvature="0" />
            </g>
            <g
               id="g4555"
               transform="translate(362.1475,394.9953)">
              <path
                 d="m 0,0 c -5.259,-4.952 -8.869,-2.777 -10.728,-2.378 -0.977,0.393 -2.204,0.627 -3.535,0.627 -3.212,0 -5.816,-1.369 -5.816,-3.056 0,-0.61 0.345,-1.177 0.932,-1.651 0.601,0.559 1.533,1.008 2.643,1.27 1.135,0.196 3.054,0.348 5.342,-0.229 0.203,-0.058 0.424,-0.122 0.66,-0.179 0.276,-0.087 0.523,-0.143 0.739,-0.185 0.099,-0.022 0.18,-0.043 0.284,-0.058 5.952,-1.318 9.524,1.667 9.524,1.667 z"
                 style="fill:#917641;fill-opacity:1;fill-rule:nonzero;stroke:none"
                 id="path4557"
                 inkscape:connector-curvature="0" />
            </g>
            <g
               id="g4559"
               transform="translate(341.4209,342.9738)">
              <path
                 d="m 0,0 c 0,0 -3.314,0.01 -4.939,0.802 -2.94,1.417 -3.501,5.778 -3.872,9.379 -0.041,0.395 -2.778,1.258 -4.08,2.452 -2.118,1.936 -1.793,7.975 -1.793,8.361 0,0.391 -3.427,2.072 -3.427,5.811 0,1.579 0.03,10.417 0.03,10.417 -2.234,2.769 -3.656,2.807 -5.439,2.25 -2.213,-0.709 -2.851,-2.345 -5.159,-2.673 0,-0.507 -0.025,-26.85 -0.025,-26.85 0,-8.116 1.49,-13.722 9.806,-19.961 7.71,-5.782 13.682,-5.639 18.89,-15.112 C 0.081,-25.274 0.025,0 0,0"
                 style="fill:#1a2c6b;fill-opacity:1;fill-rule:nonzero;stroke:none"
                 id="path4561"
                 inkscape:connector-curvature="0" />
            </g>
            <g
               id="g4563"
               transform="translate(371.4854,336.2854)">
              <path
                 d="m 0,0 c -0.146,0.063 -0.175,0.109 -0.175,0.308 0,0.495 0.035,1.035 0.046,1.177 0.01,0.137 0.038,0.233 0.111,0.233 0.081,0 0.092,-0.078 0.092,-0.151 0,-0.117 0.038,-0.306 0.081,-0.46 0.2,-0.666 0.741,-0.909 1.308,-0.909 0.822,0 1.226,0.55 1.226,1.028 0,0.44 -0.137,0.863 -0.896,1.438 L 1.371,2.987 C 0.366,3.762 0.018,4.392 0.018,5.12 c 0,0.99 0.843,1.7 2.113,1.7 C 2.725,6.82 3.11,6.731 3.347,6.668 3.431,6.65 3.477,6.624 3.477,6.559 3.477,6.442 3.44,6.182 3.44,5.479 3.44,5.281 3.413,5.209 3.337,5.209 3.275,5.209 3.248,5.266 3.248,5.373 3.248,5.453 3.199,5.732 3.009,5.967 2.872,6.138 2.605,6.408 2.012,6.408 1.336,6.408 0.922,6.02 0.922,5.479 0.922,5.065 1.136,4.752 1.895,4.185 L 2.148,3.996 C 3.248,3.159 3.649,2.556 3.649,1.701 3.649,1.179 3.448,0.559 2.788,0.137 2.331,-0.15 1.821,-0.233 1.336,-0.233 0.806,-0.233 0.393,-0.17 0,0"
                 style="fill:#1a2c6b;fill-opacity:1;fill-rule:nonzero;stroke:none"
                 id="path4565"
                 inkscape:connector-curvature="0" />
            </g>
            <g
               id="g4567"
               transform="translate(377.3584,340.3713)">
              <path
                 d="m 0,0 c 0,1.367 0,1.62 -0.018,1.906 -0.02,0.307 -0.111,0.46 -0.312,0.505 -0.102,0.028 -0.221,0.036 -0.33,0.036 -0.091,0 -0.148,0.018 -0.148,0.091 0,0.053 0.075,0.07 0.222,0.07 0.345,0 0.921,-0.026 1.188,-0.026 0.228,0 0.769,0.026 1.117,0.026 0.117,0 0.19,-0.017 0.19,-0.07 C 1.909,2.465 1.856,2.447 1.765,2.447 1.674,2.447 1.6,2.439 1.49,2.421 1.242,2.374 1.171,2.221 1.15,1.906 1.133,1.62 1.133,1.367 1.133,0 v -1.583 c 0,-0.874 0,-1.585 0.038,-1.971 0.027,-0.242 0.089,-0.405 0.365,-0.44 0.127,-0.019 0.328,-0.037 0.465,-0.037 0.101,0 0.147,-0.027 0.147,-0.071 0,-0.065 -0.074,-0.09 -0.175,-0.09 -0.602,0 -1.181,0.025 -1.427,0.025 -0.211,0 -0.787,-0.025 -1.151,-0.025 -0.119,0 -0.182,0.025 -0.182,0.09 0,0.044 0.036,0.071 0.144,0.071 0.138,0 0.247,0.018 0.331,0.037 0.183,0.035 0.239,0.187 0.264,0.451 C 0,-3.168 0,-2.457 0,-1.583 Z"
                 style="fill:#1a2c6b;fill-opacity:1;fill-rule:nonzero;stroke:none"
                 id="path4569"
                 inkscape:connector-curvature="0" />
            </g>
            <g
               id="g4571"
               transform="translate(382.0479,337.4016)">
              <path
                 d="m 0,0 c 0.021,-0.702 0.138,-0.936 0.323,-0.996 0.155,-0.057 0.327,-0.066 0.472,-0.066 0.104,0 0.157,-0.017 0.157,-0.07 0,-0.073 -0.081,-0.091 -0.21,-0.091 -0.595,0 -0.96,0.026 -1.136,0.026 -0.081,0 -0.509,-0.026 -0.984,-0.026 -0.122,0 -0.203,0.008 -0.203,0.091 0,0.053 0.056,0.07 0.144,0.07 0.123,0 0.285,0.009 0.415,0.046 0.238,0.072 0.273,0.333 0.284,1.117 l 0.081,5.324 c 0,0.18 0.028,0.307 0.117,0.307 0.102,0 0.185,-0.117 0.34,-0.279 C -0.091,5.336 1.301,3.87 2.636,2.564 3.258,1.953 4.492,0.659 4.646,0.513 H 4.692 L 4.602,4.554 C 4.591,5.102 4.51,5.272 4.291,5.362 4.151,5.417 3.936,5.417 3.807,5.417 c -0.113,0 -0.148,0.025 -0.148,0.08 0,0.072 0.102,0.081 0.238,0.081 0.476,0 0.914,-0.026 1.108,-0.026 0.099,0 0.447,0.026 0.896,0.026 0.12,0 0.211,-0.009 0.211,-0.081 0,-0.055 -0.056,-0.08 -0.168,-0.08 -0.089,0 -0.162,0 -0.274,-0.026 C 5.416,5.318 5.343,5.129 5.332,4.625 L 5.23,-1.053 c 0,-0.196 -0.035,-0.279 -0.116,-0.279 -0.099,0 -0.211,0.1 -0.312,0.2 C 4.228,-0.593 3.055,0.585 2.105,1.512 1.107,2.483 0.092,3.608 -0.073,3.779 h -0.026 z"
                 style="fill:#1a2c6b;fill-opacity:1;fill-rule:nonzero;stroke:none"
                 id="path4573"
                 inkscape:connector-curvature="0" />
            </g>
            <g
               id="g4575"
               transform="translate(395.752,336.7805)">
              <path
                 d="m 0,0 c 0,-0.242 -0.011,-0.26 -0.122,-0.323 -0.595,-0.305 -1.488,-0.406 -2.201,-0.406 -2.241,0 -4.226,1.044 -4.226,3.529 0,1.439 0.76,2.446 1.59,2.941 0.878,0.521 1.693,0.584 2.46,0.584 0.633,0 1.437,-0.107 1.62,-0.143 0.193,-0.036 0.513,-0.091 0.721,-0.099 0.112,-0.009 0.13,-0.045 0.13,-0.108 0,-0.099 -0.064,-0.352 -0.064,-1.475 0,-0.144 -0.03,-0.19 -0.101,-0.19 -0.064,0 -0.084,0.046 -0.092,0.118 -0.028,0.208 -0.071,0.495 -0.31,0.747 -0.276,0.287 -1.008,0.701 -2.039,0.701 -0.505,0 -1.173,-0.036 -1.812,-0.558 -0.513,-0.422 -0.843,-1.097 -0.843,-2.205 0,-1.934 1.254,-3.382 3.183,-3.382 0.24,0 0.559,0 0.778,0.098 0.136,0.064 0.175,0.182 0.175,0.335 v 0.845 c 0,0.449 0,0.791 -0.01,1.06 -0.011,0.307 -0.092,0.452 -0.392,0.515 -0.076,0.017 -0.23,0.025 -0.357,0.025 -0.084,0 -0.138,0.019 -0.138,0.074 0,0.071 0.064,0.088 0.191,0.088 0.477,0 1.053,-0.026 1.328,-0.026 0.282,0 0.769,0.026 1.069,0.026 0.119,0 0.186,-0.017 0.186,-0.088 C 0.724,2.628 0.667,2.609 0.603,2.609 0.53,2.609 0.464,2.601 0.355,2.584 0.108,2.539 0.017,2.386 0.007,2.069 0,1.8 0,1.441 0,0.99 Z"
                 style="fill:#1a2c6b;fill-opacity:1;fill-rule:nonzero;stroke:none"
                 id="path4577"
                 inkscape:connector-curvature="0" />
            </g>
            <g
               id="g4579"
               transform="translate(400.5811,338.9758)">
              <path
                 d="m 0,0 c 0.043,0 0.053,0.028 0.043,0.055 l -0.82,2.222 c -0.01,0.035 -0.018,0.08 -0.048,0.08 -0.029,0 -0.046,-0.045 -0.054,-0.08 L -1.719,0.064 C -1.729,0.028 -1.719,0 -1.684,0 Z m -1.866,-0.448 c -0.046,0 -0.064,-0.019 -0.081,-0.073 l -0.495,-1.288 c -0.092,-0.222 -0.138,-0.44 -0.138,-0.547 0,-0.163 0.081,-0.28 0.366,-0.28 h 0.137 c 0.109,0 0.137,-0.017 0.137,-0.07 0,-0.073 -0.053,-0.091 -0.158,-0.091 -0.292,0 -0.682,0.026 -0.966,0.026 -0.102,0 -0.603,-0.026 -1.08,-0.026 -0.12,0 -0.175,0.018 -0.175,0.091 0,0.053 0.038,0.07 0.112,0.07 0.081,0 0.21,0.009 0.281,0.019 0.422,0.054 0.595,0.36 0.778,0.808 l 2.294,5.652 c 0.113,0.261 0.165,0.359 0.257,0.359 0.084,0 0.137,-0.081 0.231,-0.289 0.219,-0.493 1.681,-4.163 2.267,-5.531 0.348,-0.809 0.613,-0.936 0.805,-0.981 0.138,-0.028 0.274,-0.037 0.384,-0.037 0.073,0 0.119,-0.009 0.119,-0.07 0,-0.073 -0.081,-0.091 -0.421,-0.091 -0.33,0 -0.996,0 -1.727,0.018 -0.165,0.008 -0.277,0.008 -0.277,0.073 0,0.053 0.038,0.07 0.13,0.079 0.064,0.019 0.127,0.1 0.081,0.207 l -0.731,1.908 c -0.018,0.045 -0.046,0.064 -0.091,0.064 z"
                 style="fill:#1a2c6b;fill-opacity:1;fill-rule:nonzero;stroke:none"
                 id="path4581"
                 inkscape:connector-curvature="0" />
            </g>
            <g
               id="g4583"
               transform="translate(404.7959,340.3713)">
              <path
                 d="m 0,0 c 0,1.367 0,1.62 -0.018,1.906 -0.018,0.307 -0.091,0.45 -0.393,0.515 -0.074,0.018 -0.229,0.026 -0.356,0.026 -0.101,0 -0.155,0.018 -0.155,0.08 0,0.064 0.061,0.081 0.198,0.081 0.485,0 1.062,-0.026 1.321,-0.026 0.373,0 0.903,0.026 1.325,0.026 1.142,0 1.554,-0.378 1.701,-0.512 0.2,-0.19 0.457,-0.594 0.457,-1.071 0,-1.277 -0.952,-2.178 -2.25,-2.178 -0.045,0 -0.146,0 -0.192,0.01 -0.046,0.009 -0.11,0.018 -0.11,0.082 0,0.071 0.064,0.098 0.257,0.098 0.51,0 1.226,0.567 1.226,1.484 0,0.296 -0.031,0.901 -0.54,1.35 C 2.141,2.168 1.765,2.221 1.554,2.221 1.417,2.221 1.282,2.213 1.198,2.186 1.152,2.168 1.125,2.113 1.125,2.016 v -3.599 c 0,-0.829 0,-1.539 0.045,-1.926 0.028,-0.253 0.084,-0.45 0.358,-0.485 0.127,-0.019 0.33,-0.037 0.467,-0.037 0.1,0 0.146,-0.027 0.146,-0.071 0,-0.065 -0.075,-0.09 -0.173,-0.09 -0.605,0 -1.181,0.025 -1.42,0.025 -0.21,0 -0.787,-0.025 -1.153,-0.025 -0.119,0 -0.18,0.025 -0.18,0.09 0,0.044 0.036,0.071 0.145,0.071 0.137,0 0.246,0.018 0.33,0.037 0.183,0.035 0.226,0.232 0.264,0.495 C 0,-3.122 0,-2.412 0,-1.583 Z"
                 style="fill:#1a2c6b;fill-opacity:1;fill-rule:nonzero;stroke:none"
                 id="path4585"
                 inkscape:connector-curvature="0" />
            </g>
            <g
               id="g4587"
               transform="translate(416.0283,339.4084)">
              <path
                 d="m 0,0 c 0,2.016 -1.181,3.266 -2.681,3.266 -1.051,0 -2.25,-0.576 -2.25,-2.815 0,-1.873 1.051,-3.358 2.809,-3.358 C -1.482,-2.907 0,-2.6 0,0 m -6.192,0.172 c 0,1.539 1.033,3.525 3.778,3.525 2.277,0 3.694,-1.303 3.694,-3.364 0,-2.061 -1.463,-3.689 -3.786,-3.689 -2.625,0 -3.686,1.934 -3.686,3.528"
                 style="fill:#1a2c6b;fill-opacity:1;fill-rule:nonzero;stroke:none"
                 id="path4589"
                 inkscape:connector-curvature="0" />
            </g>
            <g
               id="g4591"
               transform="translate(420.3477,339.6594)">
              <path
                 d="m 0,0 c 0,-0.097 0.018,-0.134 0.081,-0.162 0.193,-0.062 0.467,-0.089 0.693,-0.089 0.369,0 0.485,0.036 0.65,0.154 0.274,0.199 0.541,0.611 0.541,1.348 0,1.277 -0.861,1.646 -1.399,1.646 C 0.338,2.897 0.173,2.888 0.081,2.862 0.018,2.844 0,2.808 0,2.736 Z m -1.079,0.712 c 0,1.367 0,1.62 -0.018,1.906 -0.02,0.307 -0.094,0.45 -0.396,0.515 -0.071,0.017 -0.226,0.026 -0.356,0.026 -0.101,0 -0.155,0.018 -0.155,0.08 0,0.064 0.064,0.081 0.201,0.081 0.485,0 1.062,-0.026 1.252,-0.026 0.312,0 1.008,0.026 1.289,0.026 C 1.315,3.32 1.93,3.268 2.422,2.933 2.679,2.764 3.044,2.304 3.044,1.702 3.044,1.037 2.763,0.424 1.836,-0.315 2.65,-1.32 3.283,-2.122 3.821,-2.681 4.334,-3.202 4.71,-3.265 4.847,-3.292 c 0.101,-0.019 0.182,-0.027 0.257,-0.027 0.071,0 0.109,-0.027 0.109,-0.071 0,-0.073 -0.064,-0.09 -0.176,-0.09 H 4.169 c -0.513,0 -0.739,0.044 -0.978,0.169 -0.393,0.207 -0.741,0.63 -1.254,1.324 -0.366,0.495 -0.785,1.107 -0.904,1.241 -0.046,0.055 -0.101,0.062 -0.165,0.062 L 0.071,-0.666 C 0.025,-0.666 0,-0.684 0,-0.735 V -0.863 C 0,-1.7 0,-2.41 0.043,-2.787 0.071,-3.05 0.127,-3.247 0.401,-3.282 0.538,-3.301 0.738,-3.319 0.85,-3.319 c 0.072,0 0.11,-0.027 0.11,-0.071 0,-0.065 -0.064,-0.09 -0.186,-0.09 -0.528,0 -1.206,0.025 -1.343,0.025 -0.172,0 -0.749,-0.025 -1.115,-0.025 -0.119,0 -0.182,0.025 -0.182,0.09 0,0.044 0.038,0.071 0.147,0.071 0.137,0 0.243,0.018 0.327,0.037 0.183,0.035 0.229,0.232 0.267,0.495 0.046,0.377 0.046,1.087 0.046,1.916 z"
                 style="fill:#1a2c6b;fill-opacity:1;fill-rule:nonzero;stroke:none"
                 id="path4593"
                 inkscape:connector-curvature="0" />
            </g>
            <g
               id="g4595"
               transform="translate(426.2178,340.3713)">
              <path
                 d="m 0,0 c 0,1.367 0,1.62 -0.018,1.906 -0.017,0.307 -0.091,0.45 -0.393,0.515 -0.074,0.018 -0.229,0.026 -0.356,0.026 -0.101,0 -0.155,0.018 -0.155,0.08 0,0.064 0.064,0.081 0.201,0.081 0.246,0 0.51,-0.008 0.739,-0.008 0.239,-0.009 0.449,-0.018 0.576,-0.018 0.295,0 2.115,0 2.288,0.009 0.173,0.017 0.32,0.036 0.393,0.055 C 3.321,2.653 3.374,2.681 3.42,2.681 3.466,2.681 3.476,2.646 3.476,2.6 3.476,2.538 3.431,2.429 3.402,2.016 3.393,1.926 3.374,1.529 3.356,1.422 3.349,1.376 3.331,1.322 3.266,1.322 3.202,1.322 3.184,1.367 3.184,1.448 3.184,1.511 3.177,1.663 3.128,1.773 3.064,1.934 2.974,2.043 2.517,2.096 2.358,2.113 1.401,2.132 1.216,2.132 1.171,2.132 1.152,2.104 1.152,2.043 v -2.276 c 0,-0.064 0.011,-0.1 0.064,-0.1 0.203,0 1.255,0 1.466,0.017 0.217,0.019 0.355,0.045 0.436,0.135 0.066,0.073 0.102,0.117 0.148,0.117 0.038,0 0.065,-0.017 0.065,-0.072 0,-0.053 -0.048,-0.197 -0.076,-0.655 -0.018,-0.182 -0.035,-0.54 -0.035,-0.605 0,-0.071 0,-0.169 -0.081,-0.169 -0.064,0 -0.084,0.035 -0.084,0.081 -0.008,0.088 -0.008,0.206 -0.037,0.324 -0.044,0.178 -0.171,0.314 -0.512,0.351 -0.175,0.018 -1.079,0.026 -1.297,0.026 -0.046,0 -0.057,-0.036 -0.057,-0.091 v -0.709 c 0,-0.307 -0.009,-1.134 0,-1.395 0.019,-0.62 0.165,-0.755 1.1,-0.755 0.236,0 0.62,0 0.858,0.107 0.239,0.108 0.348,0.297 0.411,0.667 0.018,0.099 0.037,0.134 0.102,0.134 0.074,0 0.074,-0.072 0.074,-0.161 0,-0.208 -0.074,-0.821 -0.122,-0.999 -0.063,-0.234 -0.144,-0.234 -0.493,-0.234 -0.686,0 -1.188,0.017 -1.581,0.027 -0.394,0.017 -0.679,0.025 -0.952,0.025 -0.1,0 -0.303,-0.008 -0.521,-0.008 -0.211,-0.01 -0.45,-0.017 -0.633,-0.017 -0.116,0 -0.179,0.025 -0.179,0.09 0,0.044 0.035,0.071 0.144,0.071 0.137,0 0.246,0.018 0.33,0.037 0.183,0.035 0.226,0.232 0.264,0.495 C 0,-3.122 0,-2.412 0,-1.583 Z"
                 style="fill:#1a2c6b;fill-opacity:1;fill-rule:nonzero;stroke:none"
                 id="path4597"
                 inkscape:connector-curvature="0" />
            </g>
            <g
               id="g4599"
               transform="translate(435.1729,342.9436)">
              <path
                 d="m 0,0 c 0.025,0.153 0.081,0.234 0.155,0.234 0.074,0 0.127,-0.044 0.246,-0.279 l 2.496,-5.073 2.489,5.137 c 0.063,0.143 0.119,0.215 0.203,0.215 0.081,0 0.136,-0.088 0.165,-0.279 l 0.83,-5.559 C 6.668,-6.17 6.759,-6.432 7.031,-6.512 7.298,-6.595 7.48,-6.604 7.6,-6.604 c 0.081,0 0.144,-0.009 0.144,-0.061 0,-0.074 -0.109,-0.1 -0.236,-0.1 -0.229,0 -1.49,0.026 -1.856,0.055 -0.211,0.018 -0.266,0.045 -0.266,0.097 0,0.047 0.038,0.075 0.101,0.101 0.056,0.017 0.084,0.133 0.046,0.386 L 4.984,-2.169 H 4.949 L 2.953,-6.252 C 2.742,-6.674 2.699,-6.757 2.615,-6.757 c -0.084,0 -0.175,0.181 -0.319,0.451 -0.219,0.413 -0.942,1.788 -1.054,2.041 -0.082,0.191 -0.63,1.325 -0.95,1.998 H 0.257 l -0.478,-3.581 c -0.017,-0.161 -0.028,-0.278 -0.028,-0.422 0,-0.172 0.12,-0.251 0.274,-0.288 0.165,-0.037 0.295,-0.046 0.386,-0.046 0.074,0 0.138,-0.017 0.138,-0.061 0,-0.082 -0.081,-0.1 -0.221,-0.1 -0.384,0 -0.795,0.026 -0.96,0.026 -0.173,0 -0.612,-0.026 -0.906,-0.026 -0.092,0 -0.163,0.018 -0.163,0.1 0,0.044 0.054,0.061 0.144,0.061 0.075,0 0.138,0 0.275,0.028 0.257,0.055 0.33,0.406 0.376,0.711 z"
                 style="fill:#1a2c6b;fill-opacity:1;fill-rule:nonzero;stroke:none"
                 id="path4601"
                 inkscape:connector-curvature="0" />
            </g>
            <g
               id="g4603"
               transform="translate(446.7412,338.9758)">
              <path
                 d="m 0,0 c 0.046,0 0.053,0.028 0.046,0.055 l -0.823,2.222 c -0.01,0.035 -0.021,0.08 -0.048,0.08 -0.028,0 -0.046,-0.045 -0.056,-0.08 L -1.722,0.064 C -1.731,0.028 -1.722,0 -1.684,0 Z m -1.866,-0.448 c -0.049,0 -0.067,-0.019 -0.084,-0.073 l -0.492,-1.288 c -0.095,-0.222 -0.138,-0.44 -0.138,-0.547 0,-0.163 0.081,-0.28 0.366,-0.28 h 0.134 c 0.112,0 0.14,-0.017 0.14,-0.07 0,-0.073 -0.056,-0.091 -0.158,-0.091 -0.289,0 -0.685,0.026 -0.966,0.026 -0.102,0 -0.605,-0.026 -1.079,-0.026 -0.121,0 -0.176,0.018 -0.176,0.091 0,0.053 0.038,0.07 0.109,0.07 0.084,0 0.211,0.009 0.284,0.019 0.422,0.054 0.595,0.36 0.778,0.808 l 2.295,5.652 c 0.112,0.261 0.165,0.359 0.258,0.359 0.082,0 0.138,-0.081 0.227,-0.289 0.221,-0.493 1.683,-4.163 2.267,-5.531 0.35,-0.809 0.615,-0.936 0.807,-0.981 0.138,-0.028 0.274,-0.037 0.384,-0.037 0.073,0 0.119,-0.009 0.119,-0.07 0,-0.073 -0.084,-0.091 -0.421,-0.091 -0.33,0 -0.996,0 -1.726,0.018 -0.165,0.008 -0.278,0.008 -0.278,0.073 0,0.053 0.036,0.07 0.13,0.079 0.064,0.019 0.127,0.1 0.081,0.207 l -0.731,1.908 c -0.018,0.045 -0.048,0.064 -0.091,0.064 z"
                 style="fill:#1a2c6b;fill-opacity:1;fill-rule:nonzero;stroke:none"
                 id="path4605"
                 inkscape:connector-curvature="0" />
            </g>
            <g
               id="g4607"
               transform="translate(451.4688,337.4016)">
              <path
                 d="m 0,0 c 0.018,-0.702 0.137,-0.936 0.32,-0.996 0.155,-0.057 0.327,-0.066 0.475,-0.066 0.101,0 0.154,-0.017 0.154,-0.07 0,-0.073 -0.081,-0.091 -0.21,-0.091 -0.594,0 -0.96,0.026 -1.133,0.026 -0.084,0 -0.512,-0.026 -0.987,-0.026 -0.12,0 -0.201,0.008 -0.201,0.091 0,0.053 0.054,0.07 0.145,0.07 0.12,0 0.285,0.009 0.412,0.046 0.238,0.072 0.276,0.333 0.284,1.117 l 0.084,5.324 c 0,0.18 0.025,0.307 0.116,0.307 0.1,0 0.186,-0.117 0.341,-0.279 C -0.092,5.336 1.298,3.87 2.633,2.564 3.255,1.953 4.491,0.659 4.646,0.513 H 4.692 L 4.599,4.554 C 4.591,5.102 4.51,5.272 4.288,5.362 4.151,5.417 3.933,5.417 3.804,5.417 c -0.11,0 -0.148,0.025 -0.148,0.08 0,0.072 0.105,0.081 0.241,0.081 0.475,0 0.914,-0.026 1.105,-0.026 0.102,0 0.449,0.026 0.896,0.026 0.12,0 0.211,-0.009 0.211,-0.081 0,-0.055 -0.053,-0.08 -0.165,-0.08 -0.091,0 -0.165,0 -0.274,-0.026 C 5.416,5.318 5.34,5.129 5.329,4.625 L 5.23,-1.053 c 0,-0.196 -0.038,-0.279 -0.117,-0.279 -0.101,0 -0.213,0.1 -0.311,0.2 -0.577,0.539 -1.747,1.717 -2.698,2.644 -1,0.971 -2.012,2.096 -2.177,2.267 h -0.029 z"
                 style="fill:#1a2c6b;fill-opacity:1;fill-rule:nonzero;stroke:none"
                 id="path4609"
                 inkscape:connector-curvature="0" />
            </g>
            <g
               id="g4611"
               transform="translate(461.8945,338.9758)">
              <path
                 d="m 0,0 c 0.045,0 0.053,0.028 0.045,0.055 l -0.822,2.222 c -0.008,0.035 -0.018,0.08 -0.046,0.08 -0.028,0 -0.046,-0.045 -0.053,-0.08 L -1.72,0.064 C -1.729,0.028 -1.72,0 -1.684,0 Z m -1.866,-0.448 c -0.046,0 -0.064,-0.019 -0.082,-0.073 L -2.44,-1.809 c -0.094,-0.222 -0.137,-0.44 -0.137,-0.547 0,-0.163 0.081,-0.28 0.362,-0.28 h 0.14 c 0.109,0 0.138,-0.017 0.138,-0.07 0,-0.073 -0.056,-0.091 -0.156,-0.091 -0.294,0 -0.687,0.026 -0.97,0.026 -0.101,0 -0.604,-0.026 -1.082,-0.026 -0.116,0 -0.171,0.018 -0.171,0.091 0,0.053 0.038,0.07 0.108,0.07 0.084,0 0.211,0.009 0.285,0.019 0.421,0.054 0.594,0.36 0.776,0.808 l 2.296,5.652 c 0.109,0.261 0.166,0.359 0.256,0.359 0.081,0 0.138,-0.081 0.229,-0.289 0.22,-0.493 1.683,-4.163 2.267,-5.531 0.348,-0.809 0.615,-0.936 0.808,-0.981 0.137,-0.028 0.274,-0.037 0.383,-0.037 0.074,0 0.12,-0.009 0.12,-0.07 0,-0.073 -0.084,-0.091 -0.425,-0.091 -0.327,0 -0.995,0 -1.726,0.018 -0.163,0.008 -0.274,0.008 -0.274,0.073 0,0.053 0.035,0.07 0.129,0.079 0.062,0.019 0.127,0.1 0.081,0.207 l -0.73,1.908 c -0.021,0.045 -0.046,0.064 -0.092,0.064 z"
                 style="fill:#1a2c6b;fill-opacity:1;fill-rule:nonzero;stroke:none"
                 id="path4613"
                 inkscape:connector-curvature="0" />
            </g>
            <g
               id="g4615"
               transform="translate(471.6641,336.7805)">
              <path
                 d="m 0,0 c 0,-0.242 -0.013,-0.26 -0.119,-0.323 -0.594,-0.305 -1.49,-0.406 -2.206,-0.406 -2.242,0 -4.226,1.044 -4.226,3.529 0,1.439 0.76,2.446 1.593,2.941 0.878,0.521 1.693,0.584 2.463,0.584 0.629,0 1.431,-0.107 1.617,-0.143 0.192,-0.036 0.513,-0.091 0.721,-0.099 0.109,-0.009 0.127,-0.045 0.127,-0.108 0,-0.099 -0.064,-0.352 -0.064,-1.475 0,-0.144 -0.025,-0.19 -0.098,-0.19 -0.064,0 -0.084,0.046 -0.092,0.118 -0.031,0.208 -0.074,0.495 -0.313,0.747 -0.273,0.287 -1.005,0.701 -2.038,0.701 -0.503,0 -1.171,-0.036 -1.81,-0.558 -0.513,-0.422 -0.841,-1.097 -0.841,-2.205 0,-1.934 1.252,-3.382 3.182,-3.382 0.238,0 0.558,0 0.777,0.098 0.137,0.064 0.172,0.182 0.172,0.335 v 0.845 c 0,0.449 0,0.791 -0.007,1.06 -0.011,0.307 -0.089,0.452 -0.397,0.515 -0.071,0.017 -0.225,0.025 -0.355,0.025 -0.081,0 -0.137,0.019 -0.137,0.074 0,0.071 0.064,0.088 0.193,0.088 0.477,0 1.051,-0.026 1.325,-0.026 0.285,0 0.769,0.026 1.072,0.026 0.119,0 0.183,-0.017 0.183,-0.088 C 0.722,2.628 0.666,2.609 0.603,2.609 0.528,2.609 0.465,2.601 0.355,2.584 0.107,2.539 0.016,2.386 0.008,2.069 0,1.8 0,1.441 0,0.99 Z"
                 style="fill:#1a2c6b;fill-opacity:1;fill-rule:nonzero;stroke:none"
                 id="path4617"
                 inkscape:connector-curvature="0" />
            </g>
            <g
               id="g4619"
               transform="translate(474.2598,340.3713)">
              <path
                 d="m 0,0 c 0,1.367 0,1.62 -0.019,1.906 -0.017,0.307 -0.089,0.45 -0.393,0.515 -0.073,0.018 -0.229,0.026 -0.356,0.026 -0.101,0 -0.154,0.018 -0.154,0.08 0,0.064 0.064,0.081 0.2,0.081 0.246,0 0.511,-0.008 0.739,-0.008 0.242,-0.009 0.45,-0.018 0.577,-0.018 0.295,0 2.112,0 2.288,0.009 C 3.057,2.608 3.201,2.627 3.275,2.646 3.32,2.653 3.377,2.681 3.42,2.681 3.468,2.681 3.476,2.646 3.476,2.6 3.476,2.538 3.428,2.429 3.404,2.016 3.395,1.926 3.377,1.529 3.356,1.422 3.349,1.376 3.328,1.322 3.265,1.322 3.201,1.322 3.184,1.367 3.184,1.448 3.184,1.511 3.174,1.663 3.128,1.773 3.064,1.934 2.976,2.043 2.514,2.096 2.361,2.113 1.398,2.132 1.216,2.132 1.173,2.132 1.152,2.104 1.152,2.043 v -2.276 c 0,-0.064 0.01,-0.1 0.064,-0.1 0.2,0 1.254,0 1.465,0.017 0.218,0.019 0.355,0.045 0.439,0.135 0.064,0.073 0.099,0.117 0.145,0.117 0.038,0 0.063,-0.017 0.063,-0.072 0,-0.053 -0.046,-0.197 -0.071,-0.655 -0.018,-0.182 -0.038,-0.54 -0.038,-0.605 0,-0.071 0,-0.169 -0.083,-0.169 -0.064,0 -0.079,0.035 -0.079,0.081 -0.01,0.088 -0.01,0.206 -0.039,0.324 -0.042,0.178 -0.172,0.314 -0.512,0.351 -0.173,0.018 -1.079,0.026 -1.3,0.026 -0.044,0 -0.054,-0.036 -0.054,-0.091 v -0.709 c 0,-0.307 -0.007,-1.134 0,-1.395 0.021,-0.62 0.165,-0.755 1.097,-0.755 0.241,0 0.622,0 0.863,0.107 0.237,0.108 0.346,0.297 0.409,0.667 0.021,0.099 0.036,0.134 0.102,0.134 0.071,0 0.071,-0.072 0.071,-0.161 0,-0.208 -0.071,-0.821 -0.12,-0.999 -0.06,-0.234 -0.146,-0.234 -0.492,-0.234 -0.686,0 -1.19,0.017 -1.582,0.027 -0.391,0.017 -0.675,0.025 -0.949,0.025 -0.102,0 -0.305,-0.008 -0.526,-0.008 -0.209,-0.01 -0.444,-0.017 -0.63,-0.017 -0.117,0 -0.18,0.025 -0.18,0.09 0,0.044 0.036,0.071 0.144,0.071 0.14,0 0.247,0.018 0.33,0.037 0.184,0.035 0.229,0.232 0.265,0.495 C 0,-3.122 0,-2.412 0,-1.583 Z"
                 style="fill:#1a2c6b;fill-opacity:1;fill-rule:nonzero;stroke:none"
                 id="path4621"
                 inkscape:connector-curvature="0" />
            </g>
            <g
               id="g4623"
               transform="translate(480.4238,342.9436)">
              <path
                 d="m 0,0 c 0.028,0.153 0.084,0.234 0.158,0.234 0.073,0 0.124,-0.044 0.243,-0.279 L 2.9,-5.118 5.389,0.019 c 0.063,0.143 0.119,0.215 0.2,0.215 0.084,0 0.137,-0.088 0.162,-0.279 l 0.833,-5.559 c 0.084,-0.566 0.178,-0.828 0.449,-0.908 0.265,-0.083 0.45,-0.092 0.57,-0.092 0.081,0 0.144,-0.009 0.144,-0.061 0,-0.074 -0.111,-0.1 -0.236,-0.1 -0.231,0 -1.493,0.026 -1.859,0.055 -0.208,0.018 -0.263,0.045 -0.263,0.097 0,0.047 0.035,0.075 0.098,0.101 0.056,0.017 0.084,0.133 0.046,0.386 L 4.984,-2.169 H 4.951 L 2.956,-6.252 C 2.742,-6.674 2.697,-6.757 2.615,-6.757 c -0.081,0 -0.172,0.181 -0.319,0.451 -0.219,0.413 -0.943,1.788 -1.052,2.041 -0.083,0.191 -0.632,1.325 -0.949,1.998 H 0.254 l -0.472,-3.581 c -0.02,-0.161 -0.028,-0.278 -0.028,-0.422 0,-0.172 0.119,-0.251 0.274,-0.288 0.162,-0.037 0.292,-0.046 0.384,-0.046 0.073,0 0.14,-0.017 0.14,-0.061 0,-0.082 -0.087,-0.1 -0.222,-0.1 -0.383,0 -0.794,0.026 -0.959,0.026 -0.176,0 -0.612,-0.026 -0.907,-0.026 -0.091,0 -0.165,0.018 -0.165,0.1 0,0.044 0.056,0.061 0.145,0.061 0.074,0 0.137,0 0.277,0.028 0.257,0.055 0.33,0.406 0.373,0.711 z"
                 style="fill:#1a2c6b;fill-opacity:1;fill-rule:nonzero;stroke:none"
                 id="path4625"
                 inkscape:connector-curvature="0" />
            </g>
            <g
               id="g4627"
               transform="translate(489.6719,340.3713)">
              <path
                 d="m 0,0 c 0,1.367 0,1.62 -0.02,1.906 -0.016,0.307 -0.089,0.45 -0.392,0.515 -0.073,0.018 -0.231,0.026 -0.358,0.026 -0.099,0 -0.157,0.018 -0.157,0.08 0,0.064 0.066,0.081 0.203,0.081 0.246,0 0.513,-0.008 0.742,-0.008 0.236,-0.009 0.446,-0.018 0.576,-0.018 0.292,0 2.11,0 2.288,0.009 C 3.054,2.608 3.199,2.627 3.275,2.646 3.318,2.653 3.374,2.681 3.42,2.681 3.463,2.681 3.476,2.646 3.476,2.6 3.476,2.538 3.43,2.429 3.399,2.016 3.392,1.926 3.374,1.529 3.356,1.422 3.346,1.376 3.328,1.322 3.265,1.322 3.199,1.322 3.181,1.367 3.181,1.448 3.181,1.511 3.171,1.663 3.128,1.773 3.064,1.934 2.971,2.043 2.514,2.096 2.355,2.113 1.398,2.132 1.216,2.132 1.168,2.132 1.152,2.104 1.152,2.043 v -2.276 c 0,-0.064 0.008,-0.1 0.064,-0.1 0.2,0 1.254,0 1.463,0.017 0.22,0.019 0.355,0.045 0.438,0.135 0.064,0.073 0.102,0.117 0.148,0.117 0.036,0 0.063,-0.017 0.063,-0.072 0,-0.053 -0.043,-0.197 -0.073,-0.655 -0.018,-0.182 -0.036,-0.54 -0.036,-0.605 0,-0.071 0,-0.169 -0.083,-0.169 -0.064,0 -0.082,0.035 -0.082,0.081 -0.01,0.088 -0.01,0.206 -0.035,0.324 -0.048,0.178 -0.178,0.314 -0.513,0.351 -0.173,0.018 -1.079,0.026 -1.298,0.026 -0.048,0 -0.056,-0.036 -0.056,-0.091 v -0.709 c 0,-0.307 -0.007,-1.134 0,-1.395 0.016,-0.62 0.165,-0.755 1.097,-0.755 0.236,0 0.622,0 0.858,0.107 0.239,0.108 0.348,0.297 0.415,0.667 0.014,0.099 0.035,0.134 0.098,0.134 0.074,0 0.074,-0.072 0.074,-0.161 0,-0.208 -0.074,-0.821 -0.117,-0.999 -0.066,-0.234 -0.147,-0.234 -0.495,-0.234 -0.685,0 -1.188,0.017 -1.584,0.027 -0.393,0.017 -0.676,0.025 -0.952,0.025 -0.1,0 -0.3,-0.008 -0.519,-0.008 -0.211,-0.01 -0.449,-0.017 -0.631,-0.017 -0.12,0 -0.183,0.025 -0.183,0.09 0,0.044 0.038,0.071 0.144,0.071 0.137,0 0.249,0.018 0.331,0.037 0.182,0.035 0.228,0.232 0.266,0.495 C 0,-3.122 0,-2.412 0,-1.583 Z"
                 style="fill:#1a2c6b;fill-opacity:1;fill-rule:nonzero;stroke:none"
                 id="path4629"
                 inkscape:connector-curvature="0" />
            </g>
            <g
               id="g4631"
               transform="translate(496.0088,337.4016)">
              <path
                 d="m 0,0 c 0.021,-0.702 0.138,-0.936 0.32,-0.996 0.155,-0.057 0.33,-0.066 0.475,-0.066 0.101,0 0.157,-0.017 0.157,-0.07 0,-0.073 -0.084,-0.091 -0.213,-0.091 -0.594,0 -0.96,0.026 -1.133,0.026 -0.078,0 -0.512,-0.026 -0.985,-0.026 -0.121,0 -0.203,0.008 -0.203,0.091 0,0.053 0.054,0.07 0.147,0.07 0.118,0 0.283,0.009 0.412,0.046 0.236,0.072 0.274,0.333 0.282,1.117 l 0.084,5.324 c 0,0.18 0.027,0.307 0.119,0.307 0.098,0 0.183,-0.117 0.338,-0.279 C -0.091,5.336 1.298,3.87 2.636,2.564 3.255,1.953 4.492,0.659 4.645,0.513 H 4.692 L 4.601,4.554 C 4.591,5.102 4.507,5.272 4.289,5.362 4.151,5.417 3.934,5.417 3.804,5.417 c -0.11,0 -0.145,0.025 -0.145,0.08 0,0.072 0.102,0.081 0.238,0.081 0.473,0 0.917,-0.026 1.108,-0.026 0.101,0 0.446,0.026 0.893,0.026 0.12,0 0.211,-0.009 0.211,-0.081 0,-0.055 -0.053,-0.08 -0.165,-0.08 -0.089,0 -0.165,0 -0.271,-0.026 C 5.413,5.318 5.343,5.129 5.332,4.625 L 5.233,-1.053 c 0,-0.196 -0.038,-0.279 -0.119,-0.279 -0.101,0 -0.211,0.1 -0.312,0.2 C 4.226,-0.593 3.055,0.585 2.105,1.512 1.107,2.483 0.094,3.608 -0.071,3.779 h -0.031 z"
                 style="fill:#1a2c6b;fill-opacity:1;fill-rule:nonzero;stroke:none"
                 id="path4633"
                 inkscape:connector-curvature="0" />
            </g>
            <g
               id="g4635"
               transform="translate(505.4209,342.4758)">
              <path
                 d="m 0,0 -1.363,-0.035 c -0.531,-0.018 -0.749,-0.064 -0.889,-0.262 -0.091,-0.135 -0.135,-0.242 -0.154,-0.314 -0.019,-0.072 -0.046,-0.11 -0.1,-0.11 -0.063,0 -0.084,0.047 -0.084,0.146 0,0.143 0.173,0.963 0.193,1.035 0.029,0.116 0.054,0.17 0.11,0.17 0.073,0 0.165,-0.089 0.393,-0.108 0.264,-0.027 0.612,-0.044 0.916,-0.044 h 3.622 c 0.291,0 0.495,0.026 0.631,0.044 0.138,0.027 0.209,0.044 0.247,0.044 0.061,0 0.074,-0.054 0.074,-0.187 0,-0.19 -0.029,-0.811 -0.029,-1.043 C 3.558,-0.755 3.54,-0.81 3.484,-0.81 c -0.071,0 -0.091,0.047 -0.099,0.18 l -0.01,0.1 C 3.357,-0.297 3.11,-0.046 2.296,-0.027 L 1.143,0 v -3.688 c 0,-0.829 0,-1.539 0.045,-1.925 0.026,-0.253 0.084,-0.45 0.356,-0.486 0.13,-0.018 0.33,-0.037 0.468,-0.037 0.098,0 0.146,-0.026 0.146,-0.07 0,-0.065 -0.07,-0.091 -0.175,-0.091 -0.604,0 -1.18,0.026 -1.431,0.026 -0.214,0 -0.793,-0.026 -1.156,-0.026 -0.12,0 -0.183,0.026 -0.183,0.091 0,0.044 0.036,0.07 0.145,0.07 0.14,0 0.248,0.019 0.33,0.037 0.183,0.036 0.239,0.233 0.264,0.496 C 0,-5.227 0,-4.517 0,-3.688 Z"
                 style="fill:#1a2c6b;fill-opacity:1;fill-rule:nonzero;stroke:none"
                 id="path4637"
                 inkscape:connector-curvature="0" />
            </g>
            <g
               id="g4639"
               transform="translate(371.5977,329.635)">
              <path
                 d="m 0,0 c 0,1.368 0,1.621 -0.021,1.908 -0.017,0.305 -0.091,0.449 -0.393,0.512 -0.073,0.019 -0.229,0.027 -0.356,0.027 -0.101,0 -0.157,0.018 -0.157,0.081 0,0.063 0.064,0.08 0.2,0.08 0.486,0 1.062,-0.025 1.338,-0.025 0.216,0 0.795,0.025 1.125,0.025 0.135,0 0.201,-0.017 0.201,-0.08 C 1.937,2.465 1.881,2.447 1.79,2.447 1.69,2.447 1.635,2.439 1.525,2.42 1.277,2.375 1.206,2.222 1.188,1.908 1.168,1.621 1.168,1.368 1.168,0 v -1.26 c 0,-1.304 0.264,-1.853 0.713,-2.213 0.414,-0.331 0.833,-0.369 1.145,-0.369 0.402,0 0.897,0.126 1.26,0.487 0.502,0.495 0.533,1.303 0.533,2.231 V 0 c 0,1.368 0,1.621 -0.02,1.908 C 4.781,2.213 4.707,2.357 4.405,2.42 4.331,2.439 4.177,2.447 4.077,2.447 c -0.102,0 -0.154,0.018 -0.154,0.081 0,0.063 0.063,0.08 0.19,0.08 0.467,0 1.043,-0.025 1.054,-0.025 0.109,0 0.683,0.025 1.041,0.025 C 6.337,2.608 6.4,2.591 6.4,2.528 6.4,2.465 6.345,2.447 6.235,2.447 6.134,2.447 6.078,2.439 5.969,2.42 5.723,2.375 5.649,2.222 5.632,1.908 5.613,1.621 5.613,1.368 5.613,0 V -0.963 C 5.613,-1.96 5.512,-3.023 4.745,-3.671 4.096,-4.219 3.436,-4.319 2.841,-4.319 2.356,-4.319 1.48,-4.291 0.81,-3.697 0.345,-3.284 0,-2.618 0,-1.314 Z"
                 style="fill:#1a2c6b;fill-opacity:1;fill-rule:nonzero;stroke:none"
                 id="path4641"
                 inkscape:connector-curvature="0" />
            </g>
            <g
               id="g4643"
               transform="translate(380.3398,326.6652)">
              <path
                 d="M 0,0 C 0.018,-0.701 0.137,-0.936 0.319,-0.998 0.475,-1.053 0.65,-1.06 0.794,-1.06 c 0.102,0 0.158,-0.019 0.158,-0.074 0,-0.071 -0.084,-0.089 -0.214,-0.089 -0.593,0 -0.96,0.027 -1.131,0.027 -0.084,0 -0.514,-0.027 -0.989,-0.027 -0.119,0 -0.203,0.009 -0.203,0.089 0,0.055 0.056,0.074 0.148,0.074 0.119,0 0.284,0.007 0.411,0.044 0.239,0.073 0.274,0.333 0.284,1.115 l 0.082,5.329 c 0,0.177 0.027,0.304 0.119,0.304 0.102,0 0.183,-0.117 0.34,-0.278 C -0.092,5.336 1.297,3.869 2.633,2.565 3.255,1.952 4.488,0.657 4.644,0.515 H 4.691 L 4.601,4.553 C 4.59,5.103 4.507,5.273 4.288,5.362 4.151,5.417 3.933,5.417 3.803,5.417 c -0.109,0 -0.145,0.026 -0.145,0.081 0,0.072 0.1,0.08 0.237,0.08 0.474,0 0.914,-0.025 1.107,-0.025 0.102,0 0.449,0.025 0.896,0.025 0.12,0 0.21,-0.008 0.21,-0.08 0,-0.055 -0.055,-0.081 -0.165,-0.081 -0.09,0 -0.162,0 -0.274,-0.027 C 5.413,5.318 5.339,5.13 5.332,4.625 L 5.23,-1.053 c 0,-0.196 -0.036,-0.279 -0.12,-0.279 -0.098,0 -0.208,0.102 -0.311,0.198 C 4.225,-0.594 3.054,0.587 2.102,1.512 1.107,2.484 0.089,3.608 -0.074,3.779 h -0.028 z"
                 style="fill:#1a2c6b;fill-opacity:1;fill-rule:nonzero;stroke:none"
                 id="path4645"
                 inkscape:connector-curvature="0" />
            </g>
            <g
               id="g4647"
               transform="translate(388.5332,329.635)">
              <path
                 d="m 0,0 c 0,1.368 0,1.621 -0.018,1.908 -0.018,0.305 -0.109,0.458 -0.312,0.502 -0.1,0.029 -0.219,0.037 -0.33,0.037 -0.089,0 -0.145,0.018 -0.145,0.089 0,0.055 0.074,0.072 0.221,0.072 0.348,0 0.924,-0.025 1.188,-0.025 0.229,0 0.769,0.025 1.115,0.025 0.122,0 0.193,-0.017 0.193,-0.072 C 1.912,2.465 1.858,2.447 1.765,2.447 1.676,2.447 1.6,2.439 1.49,2.42 1.244,2.375 1.17,2.222 1.152,1.908 1.132,1.621 1.132,1.368 1.132,0 v -1.583 c 0,-0.872 0,-1.585 0.038,-1.971 0.028,-0.242 0.092,-0.403 0.368,-0.441 0.127,-0.017 0.328,-0.034 0.465,-0.034 0.101,0 0.147,-0.028 0.147,-0.074 0,-0.063 -0.073,-0.089 -0.173,-0.089 -0.604,0 -1.18,0.026 -1.429,0.026 -0.208,0 -0.784,-0.026 -1.15,-0.026 -0.12,0 -0.185,0.026 -0.185,0.089 0,0.046 0.038,0.074 0.147,0.074 0.137,0 0.248,0.017 0.33,0.034 0.183,0.038 0.236,0.191 0.264,0.45 C 0,-3.168 0,-2.455 0,-1.583 Z"
                 style="fill:#1a2c6b;fill-opacity:1;fill-rule:nonzero;stroke:none"
                 id="path4649"
                 inkscape:connector-curvature="0" />
            </g>
            <g
               id="g4651"
               transform="translate(391.8721,331.3625)">
              <path
                 d="M 0,0 C -0.211,0.494 -0.366,0.594 -0.696,0.683 -0.833,0.72 -0.98,0.72 -1.052,0.72 c -0.083,0 -0.111,0.026 -0.111,0.081 0,0.072 0.101,0.08 0.238,0.08 0.485,0 1.006,-0.026 1.326,-0.026 0.229,0 0.67,0.026 1.127,0.026 0.11,0 0.208,-0.018 0.208,-0.08 C 1.736,0.737 1.684,0.72 1.6,0.72 1.455,0.72 1.315,0.712 1.244,0.655 1.181,0.61 1.15,0.549 1.15,0.467 1.15,0.351 1.233,0.098 1.363,-0.225 l 1.571,-4.084 h 0.037 c 0.395,0.99 1.584,3.885 1.802,4.481 0.046,0.115 0.084,0.251 0.084,0.332 0,0.072 -0.038,0.143 -0.12,0.17 C 4.626,0.712 4.489,0.72 4.372,0.72 c -0.081,0 -0.155,0.01 -0.155,0.071 0,0.072 0.082,0.09 0.254,0.09 0.46,0 0.843,-0.026 0.963,-0.026 0.154,0 0.583,0.026 0.858,0.026 0.119,0 0.192,-0.018 0.192,-0.08 C 6.484,0.737 6.429,0.72 6.337,0.72 6.246,0.72 6.056,0.72 5.891,0.61 5.771,0.53 5.634,0.377 5.388,-0.198 5.029,-1.045 4.783,-1.529 4.291,-2.636 3.704,-3.949 3.272,-4.931 3.072,-5.38 2.833,-5.902 2.78,-6.047 2.653,-6.047 c -0.119,0 -0.176,0.127 -0.347,0.55 z"
                 style="fill:#1a2c6b;fill-opacity:1;fill-rule:nonzero;stroke:none"
                 id="path4653"
                 inkscape:connector-curvature="0" />
            </g>
            <g
               id="g4655"
               transform="translate(399.3799,329.635)">
              <path
                 d="m 0,0 c 0,1.368 0,1.621 -0.018,1.908 -0.017,0.305 -0.091,0.449 -0.393,0.512 -0.074,0.019 -0.229,0.027 -0.356,0.027 -0.101,0 -0.155,0.018 -0.155,0.081 0,0.063 0.064,0.08 0.201,0.08 0.246,0 0.513,-0.007 0.739,-0.007 0.241,-0.01 0.449,-0.018 0.576,-0.018 0.295,0 2.113,0 2.288,0.008 0.173,0.017 0.32,0.037 0.393,0.055 C 3.321,2.654 3.377,2.68 3.423,2.68 3.466,2.68 3.476,2.646 3.476,2.601 3.476,2.536 3.431,2.43 3.402,2.015 3.395,1.926 3.377,1.529 3.356,1.42 3.347,1.376 3.329,1.324 3.268,1.324 3.202,1.324 3.184,1.368 3.184,1.449 3.184,1.512 3.174,1.665 3.131,1.772 3.064,1.935 2.974,2.044 2.517,2.096 2.361,2.113 1.399,2.133 1.216,2.133 1.171,2.133 1.152,2.104 1.152,2.044 v -2.277 c 0,-0.064 0.011,-0.099 0.064,-0.099 0.203,0 1.255,0 1.466,0.017 0.217,0.018 0.355,0.044 0.438,0.134 0.064,0.072 0.1,0.119 0.148,0.119 0.036,0 0.061,-0.019 0.061,-0.073 0,-0.054 -0.044,-0.197 -0.071,-0.657 C 3.24,-0.973 3.22,-1.332 3.22,-1.395 c 0,-0.07 0,-0.169 -0.081,-0.169 -0.064,0 -0.084,0.034 -0.084,0.079 -0.008,0.09 -0.008,0.208 -0.037,0.325 -0.044,0.18 -0.174,0.315 -0.509,0.349 -0.176,0.019 -1.079,0.029 -1.303,0.029 -0.043,0 -0.054,-0.037 -0.054,-0.089 v -0.712 c 0,-0.307 -0.006,-1.134 0,-1.395 0.019,-0.622 0.165,-0.754 1.098,-0.754 0.238,0 0.622,0 0.863,0.106 0.234,0.109 0.345,0.297 0.409,0.666 0.02,0.1 0.038,0.137 0.101,0.137 0.074,0 0.074,-0.073 0.074,-0.164 0,-0.206 -0.074,-0.817 -0.12,-0.998 -0.065,-0.234 -0.146,-0.234 -0.495,-0.234 -0.685,0 -1.187,0.019 -1.581,0.027 -0.394,0.017 -0.676,0.026 -0.952,0.026 -0.1,0 -0.3,-0.009 -0.521,-0.009 -0.211,-0.009 -0.447,-0.017 -0.632,-0.017 -0.117,0 -0.18,0.026 -0.18,0.089 0,0.046 0.035,0.074 0.144,0.074 0.137,0 0.249,0.017 0.33,0.034 0.183,0.038 0.229,0.233 0.264,0.496 C 0,-3.121 0,-2.411 0,-1.583 Z"
                 style="fill:#1a2c6b;fill-opacity:1;fill-rule:nonzero;stroke:none"
                 id="path4657"
                 inkscape:connector-curvature="0" />
            </g>
            <g
               id="g4659"
               transform="translate(406.2861,328.924)">
              <path
                 d="m 0,0 c 0,-0.1 0.018,-0.134 0.081,-0.16 0.193,-0.065 0.468,-0.092 0.696,-0.092 0.366,0 0.485,0.036 0.65,0.152 0.274,0.2 0.541,0.613 0.541,1.35 0,1.277 -0.864,1.648 -1.402,1.648 C 0.338,2.898 0.175,2.89 0.081,2.861 0.018,2.844 0,2.807 0,2.735 Z m -1.079,0.711 c 0,1.368 0,1.621 -0.018,1.908 -0.02,0.305 -0.093,0.449 -0.393,0.512 -0.074,0.019 -0.229,0.027 -0.356,0.027 -0.101,0 -0.157,0.018 -0.157,0.081 0,0.063 0.064,0.08 0.2,0.08 0.486,0 1.062,-0.025 1.252,-0.025 0.313,0 1.008,0.025 1.292,0.025 0.576,0 1.189,-0.052 1.684,-0.386 0.254,-0.17 0.622,-0.629 0.622,-1.232 0,-0.667 -0.284,-1.277 -1.209,-2.014 0.812,-1.009 1.445,-1.81 1.986,-2.368 0.51,-0.521 0.886,-0.585 1.023,-0.612 0.101,-0.018 0.183,-0.025 0.256,-0.025 0.074,0 0.11,-0.028 0.11,-0.074 0,-0.072 -0.064,-0.089 -0.176,-0.089 H 4.169 c -0.51,0 -0.738,0.045 -0.978,0.17 -0.393,0.208 -0.738,0.63 -1.252,1.324 -0.368,0.493 -0.787,1.106 -0.906,1.24 -0.046,0.055 -0.101,0.063 -0.165,0.063 L 0.071,-0.665 C 0.028,-0.665 0,-0.684 0,-0.736 V -0.863 C 0,-1.7 0,-2.41 0.046,-2.788 0.071,-3.051 0.13,-3.246 0.401,-3.284 c 0.137,-0.017 0.34,-0.034 0.45,-0.034 0.073,0 0.109,-0.028 0.109,-0.074 0,-0.063 -0.064,-0.089 -0.183,-0.089 -0.531,0 -1.206,0.026 -1.345,0.026 -0.173,0 -0.749,-0.026 -1.116,-0.026 -0.119,0 -0.182,0.026 -0.182,0.089 0,0.046 0.038,0.074 0.147,0.074 0.137,0 0.246,0.017 0.33,0.034 0.18,0.038 0.226,0.233 0.264,0.496 0.046,0.378 0.046,1.088 0.046,1.916 z"
                 style="fill:#1a2c6b;fill-opacity:1;fill-rule:nonzero;stroke:none"
                 id="path4661"
                 inkscape:connector-curvature="0" />
            </g>
            <g
               id="g4663"
               transform="translate(411.5166,325.552)">
              <path
                 d="m 0,0 c -0.145,0.061 -0.173,0.106 -0.173,0.305 0,0.494 0.036,1.033 0.046,1.176 0.01,0.136 0.038,0.236 0.109,0.236 0.084,0 0.094,-0.082 0.094,-0.153 0,-0.117 0.035,-0.304 0.081,-0.459 0.201,-0.665 0.741,-0.909 1.308,-0.909 0.823,0 1.226,0.55 1.226,1.027 0,0.44 -0.136,0.863 -0.898,1.439 L 1.374,2.986 C 0.368,3.759 0.02,4.389 0.02,5.117 0.02,6.107 0.863,6.82 2.133,6.82 2.727,6.82 3.113,6.729 3.349,6.666 3.431,6.647 3.476,6.619 3.476,6.557 3.476,6.44 3.44,6.179 3.44,5.478 3.44,5.28 3.412,5.206 3.339,5.206 3.278,5.206 3.25,5.261 3.25,5.369 3.25,5.451 3.202,5.73 3.012,5.964 2.872,6.135 2.607,6.404 2.014,6.404 1.338,6.404 0.924,6.018 0.924,5.478 0.924,5.062 1.135,4.749 1.896,4.182 L 2.15,3.992 C 3.25,3.156 3.651,2.553 3.651,1.7 3.651,1.177 3.45,0.558 2.793,0.133 2.333,-0.153 1.82,-0.236 1.338,-0.236 0.808,-0.236 0.396,-0.172 0,0"
                 style="fill:#1a2c6b;fill-opacity:1;fill-rule:nonzero;stroke:none"
                 id="path4665"
                 inkscape:connector-curvature="0" />
            </g>
            <g
               id="g4667"
               transform="translate(417.3896,329.635)">
              <path
                 d="m 0,0 c 0,1.368 0,1.621 -0.017,1.908 -0.019,0.305 -0.113,0.458 -0.311,0.502 -0.102,0.029 -0.221,0.037 -0.33,0.037 -0.091,0 -0.147,0.018 -0.147,0.089 0,0.055 0.074,0.072 0.221,0.072 0.345,0 0.922,-0.025 1.188,-0.025 0.229,0 0.769,0.025 1.115,0.025 0.119,0 0.193,-0.017 0.193,-0.072 C 1.912,2.465 1.858,2.447 1.767,2.447 1.673,2.447 1.602,2.439 1.49,2.42 1.244,2.375 1.173,2.222 1.152,1.908 1.135,1.621 1.135,1.368 1.135,0 v -1.583 c 0,-0.872 0,-1.585 0.038,-1.971 0.025,-0.242 0.089,-0.403 0.363,-0.441 0.129,-0.017 0.33,-0.034 0.467,-0.034 0.101,0 0.144,-0.028 0.144,-0.074 0,-0.063 -0.07,-0.089 -0.171,-0.089 -0.603,0 -1.181,0.026 -1.425,0.026 -0.213,0 -0.79,-0.026 -1.155,-0.026 -0.12,0 -0.181,0.026 -0.181,0.089 0,0.046 0.036,0.074 0.145,0.074 0.137,0 0.247,0.017 0.33,0.034 0.18,0.038 0.236,0.191 0.264,0.45 C 0,-3.168 0,-2.455 0,-1.583 Z"
                 style="fill:#1a2c6b;fill-opacity:1;fill-rule:nonzero;stroke:none"
                 id="path4669"
                 inkscape:connector-curvature="0" />
            </g>
            <g
               id="g4671"
               transform="translate(422.7871,331.7395)">
              <path
                 d="m 0,0 -1.363,-0.035 c -0.53,-0.018 -0.751,-0.063 -0.886,-0.261 -0.094,-0.136 -0.138,-0.243 -0.155,-0.314 -0.021,-0.075 -0.048,-0.109 -0.102,-0.109 -0.063,0 -0.084,0.045 -0.084,0.144 0,0.143 0.176,0.963 0.194,1.035 0.028,0.115 0.053,0.173 0.109,0.173 0.073,0 0.165,-0.092 0.394,-0.11 0.263,-0.027 0.611,-0.044 0.914,-0.044 h 3.623 c 0.292,0 0.492,0.025 0.629,0.044 0.137,0.027 0.211,0.044 0.247,0.044 0.063,0 0.073,-0.054 0.073,-0.187 0,-0.191 -0.028,-0.812 -0.028,-1.045 -0.007,-0.089 -0.028,-0.144 -0.081,-0.144 -0.074,0 -0.091,0.046 -0.099,0.179 l -0.01,0.1 C 3.357,-0.296 3.108,-0.043 2.296,-0.026 L 1.143,0 v -3.688 c 0,-0.828 0,-1.538 0.046,-1.925 0.028,-0.253 0.081,-0.449 0.358,-0.487 0.127,-0.016 0.327,-0.034 0.465,-0.034 0.101,0 0.146,-0.027 0.146,-0.074 0,-0.062 -0.073,-0.089 -0.175,-0.089 -0.604,0 -1.18,0.027 -1.437,0.027 -0.208,0 -0.784,-0.027 -1.149,-0.027 -0.121,0 -0.184,0.027 -0.184,0.089 0,0.047 0.036,0.074 0.145,0.074 0.137,0 0.247,0.018 0.331,0.034 0.184,0.038 0.238,0.234 0.263,0.496 C 0,-5.226 0,-4.516 0,-3.688 Z"
                 style="fill:#1a2c6b;fill-opacity:1;fill-rule:nonzero;stroke:none"
                 id="path4673"
                 inkscape:connector-curvature="0" />
            </g>
            <g
               id="g4675"
               transform="translate(429.1787,327.7736)">
              <path
                 d="m 0,0 c 0,0.485 -0.092,0.683 -0.211,0.943 -0.063,0.144 -1.29,2.124 -1.61,2.591 -0.229,0.334 -0.457,0.559 -0.632,0.658 -0.117,0.062 -0.272,0.117 -0.384,0.117 -0.073,0 -0.137,0.017 -0.137,0.081 0,0.054 0.064,0.08 0.175,0.08 0.165,0 0.849,-0.026 1.154,-0.026 0.19,0 0.566,0.026 0.977,0.026 0.091,0 0.137,-0.026 0.137,-0.08 0,-0.055 -0.064,-0.064 -0.203,-0.099 -0.078,-0.02 -0.127,-0.092 -0.127,-0.162 0,-0.073 0.049,-0.18 0.109,-0.307 0.13,-0.268 1.409,-2.438 1.557,-2.688 0.091,0.215 1.244,2.195 1.371,2.474 0.091,0.198 0.127,0.349 0.127,0.466 0,0.091 -0.036,0.189 -0.191,0.227 -0.081,0.018 -0.165,0.034 -0.165,0.089 0,0.062 0.046,0.08 0.155,0.08 0.304,0 0.596,-0.026 0.861,-0.026 0.2,0 0.805,0.026 0.977,0.026 0.102,0 0.165,-0.018 0.165,-0.073 C 4.105,4.335 4.034,4.309 3.933,4.309 3.841,4.309 3.666,4.271 3.529,4.199 3.336,4.11 3.237,4.002 3.036,3.761 2.734,3.4 1.454,1.285 1.289,0.898 1.152,0.575 1.152,0.297 1.152,0 v -0.74 c 0,-0.144 0,-0.52 0.029,-0.898 0.017,-0.262 0.098,-0.458 0.373,-0.496 0.127,-0.016 0.33,-0.034 0.457,-0.034 0.101,0 0.147,-0.027 0.147,-0.074 0,-0.063 -0.074,-0.089 -0.193,-0.089 -0.576,0 -1.153,0.026 -1.4,0.026 -0.228,0 -0.804,-0.026 -1.142,-0.026 -0.129,0 -0.2,0.018 -0.2,0.089 0,0.047 0.043,0.074 0.144,0.074 0.13,0 0.24,0.018 0.323,0.034 0.18,0.038 0.264,0.234 0.282,0.496 C 0,-1.26 0,-0.884 0,-0.74 Z"
                 style="fill:#1a2c6b;fill-opacity:1;fill-rule:nonzero;stroke:none"
                 id="path4677"
                 inkscape:connector-curvature="0" />
            </g>
          </g>
        </g>
      </g>
    </g>
  </g>
  <g
     inkscape:groupmode="layer"
     id="layer2"
     inkscape:label="Layer 2"
     transform="translate(-9.0057725,10.693228)">
    <path
       style="fill:none;stroke:#1a2c6b;stroke-width:0.26499999;stroke-linecap:round;stroke-linejoin:miter;stroke-miterlimit:4;stroke-dasharray:none;stroke-opacity:1"
       d="m 80.907753,-4.3218681 v 9.287616"
       id="path4990"
       inkscape:connector-curvature="0" />
    <path
       style="fill:#1a2c6b;fill-opacity:1;stroke-width:0.02636486"
       d="m 89.636428,3.4540348 c -0.117292,-0.048887 -0.199874,-0.1103343 -0.319443,-0.2377322 -0.0887,-0.094494 -0.17767,-0.210721 -0.197737,-0.2582835 -0.03513,-0.083254 -0.03699,-0.076652 -0.04966,0.1771725 l -0.01317,0.2636478 -0.533888,0.00711 -0.53389,0.00711 V 0.24817476 -2.9167 l 0.53389,0.00711 0.533888,0.00711 0.007,1.1336903 0.007,1.13368897 0.07547,-0.13182453 c 0.09605,-0.16777734 0.309017,-0.36749334 0.470546,-0.44126854 0.09822,-0.044856 0.176995,-0.057557 0.362751,-0.058488 0.213718,-0.00107 0.255023,0.00724 0.415876,0.083422 0.264441,0.125256 0.432806,0.30723851 0.59467,0.64275331 0.198474,0.41140477 0.27424,0.76846166 0.307202,1.4477531 0.03894,0.80256829 -0.09571,1.55985199 -0.356319,2.00372899 -0.224907,0.3830862 -0.520431,0.5745531 -0.920706,0.5965126 -0.197404,0.010854 -0.244847,0.00427 -0.383464,-0.053566 z M 89.79591,2.5264183 c 0.294069,-0.139544 0.430031,-0.6832759 0.398257,-1.59269369 -0.02548,-0.72908778 -0.140527,-1.08736558 -0.390071,-1.21467215 -0.249961,-0.12751704 -0.495786,-0.008536 -0.669538,0.32398255 l -0.06497,0.1243518 V 1.1203 2.0732119 l 0.08154,0.1529948 c 0.04484,0.084146 0.107146,0.1769683 0.138415,0.2062675 0.145705,0.136486 0.340537,0.1726313 0.506366,0.093939 z m 5.534985,0.9436393 C 94.922689,3.3289027 94.643927,3.0119109 94.527427,2.5564011 94.401743,2.0649899 94.440996,1.5601021 94.635001,1.1724954 94.85976,0.72344031 95.278397,0.48302591 95.769963,0.52071251 c 0.305893,0.02345 0.525089,0.1214195 0.731715,0.3270445 l 0.168561,0.16774509 -0.01472,-0.41658809 c -0.0163,-0.46136119 -0.04807,-0.59410694 -0.180677,-0.75498131 -0.268808,-0.32611174 -0.825443,-0.28349107 -1.295205,0.0991704 l -0.148692,0.12112183 -0.09008,-0.16505395 c -0.295236,-0.54101867 -0.305746,-0.56560483 -0.266035,-0.6222976 0.06477,-0.0924785 0.4203,-0.31205248 0.646534,-0.39929768 0.287338,-0.1108119 0.549846,-0.158505 0.872387,-0.158505 0.656229,0 1.129882,0.2443987 1.354045,0.69866848 0.164145,0.33264375 0.169471,0.40478861 0.169471,2.29606222 V 3.4120175 H 97.189972 96.662675 V 3.2142806 c 0,-0.1087576 -0.0055,-0.1977368 -0.01219,-0.1977368 -0.0067,0 -0.06856,0.060322 -0.137506,0.1340442 -0.06897,0.07372 -0.17664,0.1640823 -0.239287,0.2007949 -0.275919,0.1616999 -0.673644,0.2117585 -0.94285,0.1186672 z m 0.888659,-0.6954332 c 0.136328,-0.040838 0.310476,-0.1969461 0.384039,-0.3442392 0.08134,-0.1629054 0.0868,-0.6537326 0.0089,-0.8056331 -0.06517,-0.1271166 -0.230476,-0.2927259 -0.33789,-0.3384964 -0.169636,-0.072285 -0.406764,-0.037597 -0.530755,0.07766 -0.130357,0.1211731 -0.197321,0.3027323 -0.209861,0.5690155 -0.0066,0.140424 0.0019,0.3078448 0.01935,0.3863666 0.04259,0.1902396 0.163092,0.3637609 0.299574,0.4313178 0.126304,0.062518 0.218051,0.068526 0.366628,0.024019 z m 8.247116,0.7155569 c -0.65967,-0.1369277 -1.12711,-0.627937 -1.32936,-1.3964025 -0.21041,-0.7994199 -0.14919,-1.74059946 0.15542,-2.38943924 0.32788,-0.69844743 0.8224,-1.01424926 1.52986,-0.97695006 0.43072,0.022712 0.69595,0.1441653 0.98096,0.44920895 0.36193,0.38737672 0.52623,0.92612416 0.55393,1.81644806 l 0.0146,0.46797609 h -1.15126 c -0.97321,0 -1.15348,0.00582 -1.16569,0.037648 -0.0221,0.057544 0.0416,0.4326007 0.0999,0.588426 0.0816,0.2179277 0.22945,0.3843277 0.42891,0.4825238 0.15828,0.077919 0.18797,0.083784 0.36642,0.072324 0.24434,-0.015683 0.39302,-0.085322 0.6071,-0.2843657 l 0.16157,-0.1502195 0.24766,0.2872027 c 0.23917,0.2773607 0.24643,0.2895168 0.21156,0.3546552 -0.0984,0.1840084 -0.52419,0.483127 -0.84151,0.5912763 -0.19327,0.065864 -0.66286,0.092686 -0.87005,0.049689 z m 0.86106,-2.98488579 c -0.0428,-0.55525482 -0.22114,-0.85783212 -0.53326,-0.90463749 -0.29939,-0.0448955 -0.51702,0.10700011 -0.65251,0.45543884 -0.0513,0.1319254 -0.11268,0.56178965 -0.089,0.62343475 0.0148,0.038474 0.0873,0.04328 0.65407,0.04328 h 0.63747 z m 2.43382,2.98428889 c -0.33107,-0.048771 -0.68247,-0.2113708 -0.89854,-0.4157702 l -0.15811,-0.1495426 0.21657,-0.3559251 c 0.11914,-0.1957588 0.22016,-0.3604574 0.22457,-0.3659973 0.003,-0.00556 0.0766,0.052751 0.16052,0.1295236 0.50797,0.4649398 1.22859,0.4504764 1.35386,-0.027171 0.0727,-0.2769693 -0.0939,-0.4812784 -0.6106,-0.7490656 -0.86965,-0.4507011 -1.12826,-0.76768119 -1.17423,-1.43921712 -0.0561,-0.81936501 0.54512,-1.39733798 1.45353,-1.39733798 0.30587,0 0.56519,0.060555 0.84367,0.1970198 0.2261,0.11078624 0.48378,0.29092232 0.48648,0.34007269 9.7e-4,0.0168861 -0.35786,0.62681703 -0.41102,0.69871351 -0.003,0.005426 -0.0627,-0.0389266 -0.13037,-0.0985253 -0.49581,-0.43644576 -1.25015,-0.36388241 -1.25015,0.12025607 0,0.24730694 0.1248,0.36693521 0.65265,0.62578074 0.50384,0.2470498 0.83648,0.51554239 0.98914,0.79839389 0.1623,0.3006703 0.22148,0.776233 0.13701,1.100549 -0.16552,0.6354871 -0.73246,1.0210695 -1.4888,1.0125386 -0.13774,-0.00155 -0.31604,-0.012532 -0.39618,-0.024289 z m -25.107415,-0.09514 c -0.0097,-0.00969 -0.01757,-1.4335919 -0.01757,-3.16427802 V -2.9165359 l 0.593735,0.00711 0.593733,0.00711 -7.77e-4,2.58753763 c -4.3e-4,1.42314627 0.0066,2.60659927 0.01547,2.62989477 0.01441,0.037571 0.103834,0.042364 0.791197,0.042364 h 0.774941 v 0.5272981 0.5272968 h -1.366578 c -0.751619,0 -1.37449,-0.00787 -1.384154,-0.01757 z m 3.409854,-2.276166 v -2.2937433 h 0.527298 0.527296 v 2.293743 2.2937431 h -0.527296 -0.527298 z m 5.938539,0.00659 0.0067,-2.2871515 0.533887,-0.00711 0.53389,-0.00711 9.74e-4,0.31033296 c 9.71e-4,0.30085114 0.0023,0.30791566 0.04355,0.2312387 0.165824,-0.30858741 0.58134,-0.60485746 0.87816,-0.62614126 l 0.09227,-0.0066 0.0071,0.51484745 0.0071,0.51484743 -0.191683,9.5332e-4 c -0.161596,7.9857e-4 -0.21688,0.0138632 -0.352196,0.0831769 -0.15659,0.0802174 -0.382119,0.29454118 -0.452876,0.43038112 -0.02579,0.0495343 -0.03327,0.41190739 -0.03296,1.59980098 l 3.9e-4,1.5357542 h -0.540655 -0.540626 z m 6.596912,2.2541961 c -0.0068,-0.018126 -0.0095,-1.0473442 -0.0059,-2.2871528 l 0.0068,-2.2541961 0.533896,-0.00711 0.533889,-0.00711 v 0.30890394 0.30890275 l 0.07751,-0.1222199 c 0.196284,-0.30951269 0.560895,-0.55976909 0.845275,-0.58015899 l 0.0923,-0.0066 0.008,0.51484732 0.008,0.51484743 -0.19168,9.1479e-4 c -0.15578,7.3883e-4 -0.21779,0.0143669 -0.33104,0.0726999 -0.17279,0.088991 -0.321579,0.22148687 -0.426363,0.37969332 l -0.08016,0.1211097 V 1.8742681 3.4120919 h -0.527993 c -0.398221,0 -0.531218,-0.00814 -0.540696,-0.032958 z m 2.65716,-2.2541961 0.008,-2.2871528 h 0.5273 0.52731 l 0.008,2.2871528 0.007,2.2871516 h -0.54067 -0.54078 z M 86.340821,-1.900237 c -0.133846,-0.046923 -0.334854,-0.2609798 -0.376918,-0.4013751 -0.125668,-0.4194319 0.184838,-0.8493285 0.6142,-0.8503749 0.257262,-6.229e-4 0.555071,0.2135916 0.619534,0.4456429 0.149495,0.5381454 -0.331205,0.9903958 -0.856816,0.8061071 z m 15.223329,0.00478 c -0.25927,-0.097105 -0.41873,-0.3274863 -0.4192,-0.6056597 -10e-5,-0.083849 0.0161,-0.1914849 0.036,-0.2392012 0.0971,-0.2324415 0.36388,-0.4117509 0.61327,-0.4122251 0.26561,-5.052e-4 0.54708,0.2189625 0.61818,0.4820096 0.036,0.1332973 0.0177,0.3520478 -0.0388,0.4611039 -0.0531,0.1027102 -0.1844,0.2332633 -0.289,0.2873412 -0.11019,0.056988 -0.39986,0.071807 -0.52049,0.026628 z"
       id="path5007"
       inkscape:connector-curvature="0" />
  </g>
</svg>
